<svg xmlns="http://www.w3.org/2000/svg" version="1.1" xmlns:xlink="http://www.w3.org/1999/xlink" width="1000" height="1000"><metadata><rdf:RDF xmlns:rdf="http://www.w3.org/1999/02/22-rdf-syntax-ns#" xmlns:dc="http://purl.org/dc/elements/1.1/"><rdf:Description><dc:creator>RealFaviconGenerator</dc:creator><dc:source>https://realfavicongenerator.net</dc:source></rdf:Description></rdf:RDF></metadata><style>
    #light-icon {
      display: inline;
    }
    #dark-icon {
      display: none;
    }

    @media (prefers-color-scheme: dark) {
      #light-icon {
        display: none;
      }
      #dark-icon {
        display: inline;
      }
    }
  </style><g id="light-icon"><svg xmlns="http://www.w3.org/2000/svg" version="1.1" xmlns:xlink="http://www.w3.org/1999/xlink" width="1000" height="1000"><g><g transform="matrix(0.8250825082508251,0,0,0.8250825082508251,70.95709570957098,0)"><svg xmlns="http://www.w3.org/2000/svg" width="1040" height="1212" viewBox="0 0 1040 1212" fill="none"><path fill="#003F4E" fill-rule="evenodd" d="
    M 56 103
    L 466 103
    L 466 298
    L 359 406
    L 56 404
    Z

    M 157 304
    L 157 204
    L 365 205
    L 365 241
    C 365 258, 357 270, 348 277
    C 337 289, 322 299, 307 305
    Z
  "></path><path fill="#003F4E" fill-rule="evenodd" d="
    M 568 103
    L 978 103
    L 979 406
    L 628 406
    C 604 406, 586 417, 575 435
    C 568 447, 566 462, 566 480
    L 566 992
    L 601 962
    L 668 1032
    L 520 1179
    L 466 1124
    L 466 415
    L 577 305
    L 875 305
    L 874 204
    L 568 204
    Z
  "></path><path fill="#C1705B" fill-rule="evenodd" d="
    M 56 507
    L 362 507
    L 362 1024
    L 56 724
    Z

    M 159 606
    L 263 607
    L 262 783
    L 159 681
    Z
  "></path><path fill="#C1705B" fill-rule="evenodd" d="
    M 669 507
    L 979 507
    L 979 721
    L 740 959
    L 669 889
    Z

    M 771 607
    L 875 607
    L 875 680
    L 771 783
    Z
  "></path></svg></g></g></svg></g><g id="dark-icon"><svg xmlns="http://www.w3.org/2000/svg" version="1.1" xmlns:xlink="http://www.w3.org/1999/xlink" width="1000" height="1000"><g clip-path="url(#SvgjsClipPath1040)"><rect width="1000" height="1000" fill="#ffffff"></rect><g transform="matrix(0.7425742574257426,0,0,0.7425742574257426,113.86138613861385,50)"><svg xmlns="http://www.w3.org/2000/svg" width="1040" height="1212" viewBox="0 0 1040 1212" fill="none"><path fill="#003F4E" fill-rule="evenodd" d="
    M 56 103
    L 466 103
    L 466 298
    L 359 406
    L 56 404
    Z

    M 157 304
    L 157 204
    L 365 205
    L 365 241
    C 365 258, 357 270, 348 277
    C 337 289, 322 299, 307 305
    Z
  "></path><path fill="#003F4E" fill-rule="evenodd" d="
    M 568 103
    L 978 103
    L 979 406
    L 628 406
    C 604 406, 586 417, 575 435
    C 568 447, 566 462, 566 480
    L 566 992
    L 601 962
    L 668 1032
    L 520 1179
    L 466 1124
    L 466 415
    L 577 305
    L 875 305
    L 874 204
    L 568 204
    Z
  "></path><path fill="#C1705B" fill-rule="evenodd" d="
    M 56 507
    L 362 507
    L 362 1024
    L 56 724
    Z

    M 159 606
    L 263 607
    L 262 783
    L 159 681
    Z
  "></path><path fill="#C1705B" fill-rule="evenodd" d="
    M 669 507
    L 979 507
    L 979 721
    L 740 959
    L 669 889
    Z

    M 771 607
    L 875 607
    L 875 680
    L 771 783
    Z
  "></path></svg></g></g><defs><clipPath id="SvgjsClipPath1040"><rect width="1000" height="1000" x="0" y="0" rx="350" ry="350"></rect></clipPath></defs></svg></g></svg>